<?xml version="1.0" encoding="utf-8"?>
<!-- Generator: Adobe Illustrator 26.0.1, SVG Export Plug-In . SVG Version: 6.00 Build 0)  -->
<svg version="1.1" id="Layer_1" xmlns="http://www.w3.org/2000/svg" xmlns:xlink="http://www.w3.org/1999/xlink" x="0px" y="0px"
	 viewBox="0 0 697 156" style="enable-background:new 0 0 697 156;" xml:space="preserve">
<style type="text/css">
	.st0{fill:url(#SVGID_1_);}
	.st1{fill:url(#SVGID_00000106867363902201701610000015365692586155233970_);}
	.st2{fill:url(#SVGID_00000023969213951619228060000015320101851671121036_);}
	.st3{fill:url(#SVGID_00000066478217046466199160000007691160312317083805_);}
	.st4{fill:url(#SVGID_00000059303606592967874890000010349978740092931212_);}
	.st5{fill:url(#SVGID_00000176043906203792491700000008294338204778310785_);}
	.st6{fill:url(#SVGID_00000121958818162247648820000002859053875798361730_);}
	.st7{fill:url(#SVGID_00000080897397149621465750000007037402466894188191_);}
	.st8{fill:url(#SVGID_00000047056542898053724770000002187818948138211002_);}
	.st9{fill:url(#SVGID_00000029744966681134657850000003075885275281658024_);}
	.st10{fill:url(#SVGID_00000041269173598796336570000018406679652661884094_);}
	.st11{fill:url(#SVGID_00000163773846417828393540000002107222347795899305_);}
	.st12{fill:url(#SVGID_00000150076385856055723230000004170095482779805103_);}
	.st13{fill:url(#SVGID_00000079470436165244153840000015451793620870861965_);}
	.st14{fill:url(#SVGID_00000013894546650897375840000008122276630026801831_);}
</style>
<linearGradient id="SVGID_1_" gradientUnits="userSpaceOnUse" x1="24.3758" y1="60.788" x2="152.5576" y2="98.7448">
	<stop  offset="0" style="stop-color:#01D7FE"/>
	<stop  offset="1" style="stop-color:#083658"/>
</linearGradient>
<path class="st0" d="M159.6,108.2c0,7.3-3.9,14-10.2,17.6l-10.7,6.2l-14.1,8.2l-22.9,13.2c-6.3,3.6-14.1,3.6-20.4,0l-47.7-27.5
	c-6.3-3.6-10.2-10.4-10.2-17.6l0-55.1c0-7.3,3.9-14,10.2-17.6L81.2,7.9c6.3-3.6,14.1-3.6,20.4,0l14,8.1l-14.1,8.2
	c-6.3-3.6-14-3.5-20.2,0.1L47.6,43.6C41.3,47.3,37.5,54,37.5,61.3l0,38.8c0,7.3,3.9,14,10.2,17.6l33.6,19.4c6.3,3.6,14.1,3.6,20.4,0
	l8.8-5.1l14.1-8.2l10.7-6.2c6.3-3.6,10.2-10.4,10.2-17.6l0-38.8c0-7.3-3.9-14-10.2-17.6l-19.7-11.3l14.1-8.2l19.7,11.3
	c6.3,3.6,10.2,10.4,10.2,17.6L159.6,108.2z"/>
<linearGradient id="SVGID_00000023257579780002899720000014340306659986822302_" gradientUnits="userSpaceOnUse" x1="239.1288" y1="100.8417" x2="105.969" y2="63.5072">
	<stop  offset="0" style="stop-color:#662C0C"/>
	<stop  offset="1" style="stop-color:#FF6E14"/>
</linearGradient>
<path style="fill:url(#SVGID_00000023257579780002899720000014340306659986822302_);" d="M216.8,103c0,7.3-3.9,14-10.2,17.6
	l-47.7,27.6c-6.3,3.6-14.1,3.6-20.4,0l-14-8.1l14.1-8.2c6.3,3.6,14,3.5,20.2-0.1l33.6-19.4c6.3-3.6,10.2-10.4,10.2-17.6l0-38.8
	c0-7.3-3.9-14-10.2-17.6L158.8,19c-6.3-3.6-14.1-3.6-20.4,0l-8.8,5.1l-14.1,8.2l-10.7,6.2c-6.3,3.6-10.2,10.4-10.2,17.6l0,38.8
	c0,7.3,3.9,14,10.2,17.6l19.7,11.3l-14.1,8.2l-19.7-11.3c-6.3-3.6-10.2-10.4-10.2-17.6l0-55.1c0-7.3,3.9-14,10.2-17.6l10.7-6.2
	l14.1-8.2l22.9-13.2c6.3-3.6,14.1-3.6,20.4,0l47.7,27.5c6.3,3.6,10.2,10.4,10.2,17.6L216.8,103z"/>
<g>
	
		<linearGradient id="SVGID_00000146461112541021835750000000182735372076275857_" gradientUnits="userSpaceOnUse" x1="41.4816" y1="72.8276" x2="83.1718" y2="93.9839">
		<stop  offset="0" style="stop-color:#01D7FE"/>
		<stop  offset="1" style="stop-color:#083658"/>
	</linearGradient>
	<path style="fill:url(#SVGID_00000146461112541021835750000000182735372076275857_);" d="M52.4,103.7c-2.3-1.1-4.2-2.5-5.5-4.4
		c-1.3-1.9-2-4-2.1-6.5h6.3c0.2,2.2,1.1,4,2.7,5.5c1.6,1.5,3.8,2.2,6.7,2.2c2.8,0,5-0.7,6.6-2.2c1.6-1.4,2.5-3.3,2.5-5.5
		c0-1.7-0.5-3.1-1.4-4.2c-0.9-1.1-2.1-1.9-3.6-2.5c-1.4-0.6-3.3-1.2-5.8-1.8c-3-0.8-5.4-1.6-7.1-2.3c-1.8-0.8-3.3-2-4.6-3.7
		c-1.3-1.7-1.9-3.9-1.9-6.7c0-2.5,0.6-4.6,1.9-6.5c1.2-1.9,3-3.4,5.3-4.4c2.3-1,4.9-1.6,7.8-1.6c4.2,0,7.7,1.1,10.4,3.2
		c2.7,2.1,4.2,4.9,4.6,8.4h-6.5c-0.2-1.9-1.1-3.4-2.7-4.8c-1.6-1.3-3.7-2-6.4-2c-2.5,0-4.5,0.6-6,1.9c-1.6,1.3-2.3,3.1-2.3,5.5
		c0,1.6,0.5,3,1.4,4c0.9,1,2.1,1.8,3.4,2.4c1.4,0.5,3.3,1.2,5.7,1.8c3,0.8,5.4,1.6,7.2,2.4c1.8,0.8,3.4,2,4.7,3.7
		c1.3,1.7,1.9,3.9,1.9,6.8c0,2.2-0.6,4.3-1.7,6.2c-1.2,1.9-2.9,3.5-5.2,4.7c-2.3,1.2-5,1.8-8.1,1.8
		C57.4,105.3,54.8,104.8,52.4,103.7z"/>
</g>
<g>
	
		<linearGradient id="SVGID_00000040545655068971335160000016665870769883213969_" gradientUnits="userSpaceOnUse" x1="87.2436" y1="70.5207" x2="115.8667" y2="85.4545">
		<stop  offset="0" style="stop-color:#662C0C"/>
		<stop  offset="1" style="stop-color:#FF6E14"/>
	</linearGradient>
	<path style="fill:url(#SVGID_00000040545655068971335160000016665870769883213969_);" d="M115.5,70.9c2.3-1.3,5-2,8-2
		c3.2,0,6.1,0.8,8.6,2.3c2.5,1.5,4.5,3.6,6,6.4c1.5,2.7,2.2,5.9,2.2,9.5c0,3.6-0.7,6.8-2.2,9.6c-1.5,2.8-3.5,5-6,6.5
		c-2.6,1.6-5.4,2.3-8.6,2.3c-3.1,0-5.7-0.7-8-2c-2.3-1.3-4-3-5.2-5.1v6.5h-5.9V57h5.9v19C111.4,73.9,113.1,72.2,115.5,70.9z
		 M132.6,80c-1.1-2-2.5-3.5-4.4-4.5c-1.8-1-3.8-1.6-6-1.6c-2.2,0-4.1,0.5-6,1.6c-1.8,1.1-3.3,2.6-4.4,4.6c-1.1,2-1.6,4.3-1.6,6.9
		c0,2.7,0.5,5,1.6,7c1.1,2,2.6,3.5,4.4,4.6c1.8,1.1,3.8,1.6,6,1.6c2.2,0,4.2-0.5,6-1.6c1.8-1.1,3.3-2.6,4.4-4.6
		c1.1-2,1.6-4.4,1.6-7.1C134.2,84.4,133.7,82,132.6,80z"/>
</g>
<g>
	
		<linearGradient id="SVGID_00000176739363387119129970000002707726305901560504_" gradientUnits="userSpaceOnUse" x1="154.0851" y1="75.6696" x2="193.9086" y2="87.4922">
		<stop  offset="0" style="stop-color:#01D7FE"/>
		<stop  offset="1" style="stop-color:#083658"/>
	</linearGradient>
	<path style="fill:url(#SVGID_00000176739363387119129970000002707726305901560504_);" d="M177,74.3v20.9c0,1.7,0.4,2.9,1.1,3.7
		c0.7,0.7,2,1.1,3.8,1.1h4.3v5h-5.3c-3.3,0-5.7-0.8-7.4-2.3c-1.6-1.5-2.5-4-2.5-7.4V74.3h-4.6v-4.8h4.6v-8.9h5.9v8.9h9.2v4.8H177z"
		/>
</g>
<radialGradient id="SVGID_00000180367571772076766080000014210946040468566924_" cx="746.4636" cy="104.4637" r="217.2771" gradientUnits="userSpaceOnUse">
	<stop  offset="0" style="stop-color:#01D7FE"/>
	<stop  offset="1" style="stop-color:#083658"/>
</radialGradient>
<path style="fill:url(#SVGID_00000180367571772076766080000014210946040468566924_);" d="M239.1,58.9c2.6-4.6,6.2-8.2,10.8-10.8
	c4.5-2.6,9.6-3.9,15.3-3.9c6.6,0,12.4,1.7,17.4,5.1c5,3.4,8.4,8.1,10.4,14.1h-3.8c-4.9,0-9.8-1.5-13.6-4.7c-0.6-0.5-1.3-1-2-1.4
	c-2.4-1.4-5.3-2.1-8.5-2.1c-3.4,0-6.5,0.8-9.2,2.4c-2.7,1.6-4.8,3.8-6.3,6.8c-1.5,2.9-2.2,6.3-2.2,10.2c0,3.8,0.7,7.2,2.2,10.1
	c1.5,2.9,3.6,5.2,6.3,6.8c2.7,1.6,5.7,2.4,9.2,2.4c3.2,0,6.1-0.7,8.5-2.1c1-0.6,2-1.3,2.8-2.1c2.8-2.7,6.5-4.1,10.4-4.1h6.2
	c-2,6-5.4,10.8-10.4,14.1c-4.9,3.4-10.8,5-17.4,5c-5.7,0-10.8-1.3-15.3-3.9c-4.5-2.6-8.1-6.1-10.8-10.7c-2.6-4.6-3.9-9.8-3.9-15.6
	C235.2,68.7,236.5,63.5,239.1,58.9z"/>
<radialGradient id="SVGID_00000170278831976455748630000002172542105605386428_" cx="746.4636" cy="104.4637" r="217.2771" gradientUnits="userSpaceOnUse">
	<stop  offset="0" style="stop-color:#01D7FE"/>
	<stop  offset="1" style="stop-color:#083658"/>
</radialGradient>
<path style="fill:url(#SVGID_00000170278831976455748630000002172542105605386428_);" d="M309.7,102c-3.6-2-6.5-4.8-8.5-8.5
	c-2.1-3.7-3.1-7.9-3.1-12.7c0-4.8,1.1-9,3.2-12.7c2.1-3.7,5-6.5,8.7-8.5c3.7-2,7.8-3,12.3-3c4.5,0,8.6,1,12.3,3
	c3.7,2,6.6,4.8,8.7,8.5c2.1,3.7,3.2,7.9,3.2,12.7c0,4.8-1.1,9-3.3,12.7c-2.2,3.7-5.1,6.5-8.8,8.5c-3.7,2-7.8,3-12.4,3
	C317.4,105,313.3,104,309.7,102z M328,93.2c1.9-1.1,3.4-2.7,4.5-4.8c1.1-2.1,1.7-4.7,1.7-7.7c0-3-0.6-5.6-1.7-7.7
	c-1.1-2.1-2.6-3.7-4.5-4.8c-1.8-1.1-3.8-1.6-6-1.6c-3.3,0-6.2,1.2-8.5,3.7c-2.3,2.5-3.5,5.9-3.5,10.4c0,4.5,1.1,7.9,3.4,10.4
	c2.3,2.5,5.1,3.7,8.4,3.7C324,94.8,326.1,94.3,328,93.2z"/>
<radialGradient id="SVGID_00000064319765823422952130000011138864153965167024_" cx="746.4636" cy="104.4637" r="217.2771" gradientUnits="userSpaceOnUse">
	<stop  offset="0" style="stop-color:#01D7FE"/>
	<stop  offset="1" style="stop-color:#083658"/>
</radialGradient>
<path style="fill:url(#SVGID_00000064319765823422952130000011138864153965167024_);" d="M392.6,61.9c3.4,3.5,5.2,8.5,5.2,14.8v27.6
	h-3.3c-4.7,0-8.5-3.8-8.5-8.5V78.3c0-3.7-0.9-6.6-2.8-8.6c-1.9-2-4.4-3-7.6-3c-3.3,0-5.9,1-7.8,3c-1.9,2-2.8,4.9-2.8,8.6v19.3
	c0,3.7-3,6.6-6.6,6.6H353v-47h6c3.2,0,5.8,2.6,5.8,5.8v0c1.6-2,3.6-3.6,6.1-4.8c2.5-1.2,5.2-1.7,8.1-1.7
	C384.6,56.6,389.1,58.4,392.6,61.9z"/>
<radialGradient id="SVGID_00000048493790187453876650000003675657857912706705_" cx="746.4636" cy="104.4637" r="217.2771" gradientUnits="userSpaceOnUse">
	<stop  offset="0" style="stop-color:#01D7FE"/>
	<stop  offset="1" style="stop-color:#083658"/>
</radialGradient>
<path style="fill:url(#SVGID_00000048493790187453876650000003675657857912706705_);" d="M414.5,102.9c-3-1.4-5.4-3.3-7.2-5.6
	c-1.8-2.4-2.8-5-2.9-7.9h6.4c2.8,0,5.3,1.4,7,3.6c0.3,0.4,0.7,0.8,1.2,1.2c1.5,1.2,3.5,1.8,5.8,1.8c2.4,0,4.3-0.5,5.5-1.6
	c1-0.8,1.6-2,1.7-3.3c0.1-1.7-0.7-2.9-2.3-3.8c-1.6-0.8-4.1-1.6-7.5-2.5c-3.4-0.8-6.3-1.7-8.5-2.6c-2.2-0.9-4.1-2.2-5.7-4.1
	c-1.6-1.9-2.4-4.3-2.4-7.4c0-2.7,0.7-5.1,2.2-7.2c1.4-2.2,3.6-3.9,6.4-5.2c2.8-1.3,6.1-1.9,9.9-1.9c5.6,0,10.1,1.4,13.4,4.2
	c3.3,2.8,5.2,6.6,5.5,11.3h-3.8c-3.5,0-6.9-1.4-9.1-4c-0.2-0.3-0.5-0.5-0.8-0.8c-1.4-1.2-3.2-1.8-5.6-1.8c-2.1,0-3.8,0.4-5,1.3
	c-1.2,0.9-1.7,2.1-1.7,3.6c0,1.6,0.8,2.8,2.4,3.6c1.6,0.8,4,1.7,7.4,2.5c3.4,0.8,6.2,1.7,8.4,2.6c2.2,0.9,4.1,2.3,5.7,4.1
	c1.6,1.8,2.4,4.3,2.4,7.4c0,2.7-0.7,5.2-2.2,7.3c-1.5,2.2-3.6,3.9-6.4,5.1c-2.8,1.2-6,1.9-9.8,1.9C421,105,417.5,104.3,414.5,102.9z
	"/>
<radialGradient id="SVGID_00000034789515228625869180000014137550870339238038_" cx="746.4636" cy="104.4637" r="217.2771" gradientUnits="userSpaceOnUse">
	<stop  offset="0" style="stop-color:#01D7FE"/>
	<stop  offset="1" style="stop-color:#083658"/>
</radialGradient>
<path style="fill:url(#SVGID_00000034789515228625869180000014137550870339238038_);" d="M495.3,57.3v47h-6.6c-3,0-5.3-2.4-5.3-5.3
	v-0.6c-1.5,2-3.5,3.6-6,4.8c-2.5,1.2-5.1,1.7-8,1.7c-3.7,0-6.9-0.8-9.7-2.3c-2.8-1.6-5-3.8-6.7-6.9c-1.6-3-2.4-6.6-2.4-10.8V57.3
	h3.4c4.7,0,8.5,3.8,8.5,8.5v17.4c0,3.7,0.9,6.6,2.8,8.6c1.9,2,4.4,3,7.6,3c3.3,0,5.8-1,7.7-3c1.9-2,2.8-4.9,2.8-8.6V66.7
	c0-5.2,4.2-9.4,9.4-9.4H495.3z"/>
<radialGradient id="SVGID_00000049220148338654556300000004771622340357737917_" cx="746.4636" cy="104.4637" r="217.2771" gradientUnits="userSpaceOnUse">
	<stop  offset="0" style="stop-color:#01D7FE"/>
	<stop  offset="1" style="stop-color:#083658"/>
</radialGradient>
<path style="fill:url(#SVGID_00000049220148338654556300000004771622340357737917_);" d="M516.8,47.4v50.9c0,3.3-2.7,5.9-5.9,5.9
	l0,0c-3.3,0-5.9-2.7-5.9-5.9V47.4c0-3.3,2.7-5.9,5.9-5.9l0,0C514.1,41.5,516.8,44.2,516.8,47.4z"/>
<radialGradient id="SVGID_00000004538529080108908060000009266584316000598944_" cx="746.4636" cy="104.4637" r="217.2771" gradientUnits="userSpaceOnUse">
	<stop  offset="0" style="stop-color:#01D7FE"/>
	<stop  offset="1" style="stop-color:#083658"/>
</radialGradient>
<path style="fill:url(#SVGID_00000004538529080108908060000009266584316000598944_);" d="M540.2,67v22.7c0,1.6,0.4,2.7,1.1,3.4
	c0.8,0.7,2,1.1,3.9,1.1l0,0c3,0,5.5,2.5,5.5,5.5v4.5h-7.5c-10,0-15-4.9-15-14.6V67h-1.3c-2.3,0-4.2-1.9-4.2-4.2v-5.5h5.6v-4.5
	c0-4,3.2-7.2,7.2-7.2h4.8v11.6h4.2c3.5,0,6.3,2.8,6.3,6.3V67H540.2z"/>
<radialGradient id="SVGID_00000036967914044145545900000013759592226361215408_" cx="746.4636" cy="104.4637" r="217.2771" gradientUnits="userSpaceOnUse">
	<stop  offset="0" style="stop-color:#01D7FE"/>
	<stop  offset="1" style="stop-color:#083658"/>
</radialGradient>
<path style="fill:url(#SVGID_00000036967914044145545900000013759592226361215408_);" d="M557.9,49.7c-1.4-1.3-2.1-3-2.1-5
	c0-2,0.7-3.6,2.1-5c1.4-1.3,3.1-2,5.2-2c2.1,0,3.8,0.7,5.2,2c1.4,1.3,2.1,3,2.1,5c0,2-0.7,3.6-2.1,5c-1.4,1.3-3.1,2-5.2,2
	C561.1,51.7,559.3,51,557.9,49.7z M569,63.2v35.1c0,3.3-2.7,5.9-5.9,5.9l0,0c-3.3,0-5.9-2.7-5.9-5.9V63.2c0-3.3,2.7-5.9,5.9-5.9l0,0
	C566.3,57.3,569,59.9,569,63.2z"/>
<radialGradient id="SVGID_00000027569550656202182800000009621531537218590873_" cx="746.4636" cy="104.4637" r="217.2771" gradientUnits="userSpaceOnUse">
	<stop  offset="0" style="stop-color:#01D7FE"/>
	<stop  offset="1" style="stop-color:#083658"/>
</radialGradient>
<path style="fill:url(#SVGID_00000027569550656202182800000009621531537218590873_);" d="M618.2,61.9c3.4,3.5,5.2,8.5,5.2,14.8v27.6
	h-1.8c-5.5,0-10-4.5-10-10V78.3c0-3.7-0.9-6.6-2.8-8.6c-1.9-2-4.4-3-7.6-3c-3.3,0-5.9,1-7.8,3c-1.9,2-2.8,4.9-2.8,8.6v25.9h-2.1
	c-5.4,0-9.8-4.4-9.8-9.8V57.3h6c3.2,0,5.8,2.6,5.8,5.8v0c1.6-2,3.6-3.6,6.1-4.8c2.5-1.2,5.2-1.7,8.1-1.7
	C610.2,56.6,614.7,58.4,618.2,61.9z"/>
<radialGradient id="SVGID_00000157298144940629218960000008562492958280295839_" cx="746.4636" cy="104.4637" r="217.2771" gradientUnits="userSpaceOnUse">
	<stop  offset="0" style="stop-color:#01D7FE"/>
	<stop  offset="1" style="stop-color:#083658"/>
</radialGradient>
<path style="fill:url(#SVGID_00000157298144940629218960000008562492958280295839_);" d="M660.1,58.6c2.7,1.4,4.7,3.2,6.3,5.4v-0.5
	c0-3.4,2.8-6.2,6.2-6.2h5.8v47.3c0,4.4-0.9,8.2-2.6,11.7c-1.8,3.4-4.4,6.1-7.9,8.1c-3.5,2-7.7,3-12.7,3c-6.7,0-12.1-1.6-16.4-4.7
	c-4.3-3.1-6.7-7.3-7.2-12.7h4c3.9,0,7.5,1.5,10.4,4.1c0.4,0.4,0.9,0.7,1.4,1c2.1,1.3,4.6,1.9,7.5,1.9c3.4,0,6.2-1,8.4-3.1
	c2.1-2.1,3.2-5.2,3.2-9.4v-7.3c-1.5,2.2-3.6,4-6.3,5.5c-2.7,1.5-5.8,2.2-9.2,2.2c-4,0-7.6-1-10.9-3.1c-3.3-2-5.9-4.9-7.8-8.6
	c-1.9-3.7-2.8-8-2.8-12.8c0-4.7,0.9-9,2.8-12.6c1.9-3.7,4.5-6.5,7.7-8.5c3.2-2,6.9-3,10.9-3C654.4,56.5,657.5,57.2,660.1,58.6z
	 M664.7,73.3c-1.1-2.1-2.7-3.6-4.6-4.7c-1.9-1.1-4-1.7-6.2-1.7c-2.2,0-4.2,0.5-6.1,1.6c-1.9,1.1-3.4,2.6-4.5,4.7
	c-1.2,2.1-1.7,4.5-1.7,7.3c0,2.8,0.6,5.3,1.7,7.4c1.2,2.1,2.7,3.7,4.6,4.9c1.9,1.1,3.9,1.7,6.1,1.7c2.2,0,4.3-0.6,6.2-1.7
	c1.9-1.1,3.4-2.7,4.6-4.7c1.1-2.1,1.7-4.5,1.7-7.4C666.4,77.9,665.8,75.4,664.7,73.3z"/>
</svg>
